<?xml version="1.0" encoding="UTF-8"?>
<svg id="Layer_1" data-name="Layer 1" xmlns="http://www.w3.org/2000/svg" xmlns:xlink="http://www.w3.org/1999/xlink" viewBox="50 410 1420 570">
  <defs>
    <style>
      .cls-1 {
        fill: url(#linear-gradient-8);
      }

      .cls-2 {
        fill: url(#linear-gradient-7);
      }

      .cls-3 {
        fill: url(#linear-gradient-5);
      }

      .cls-4 {
        fill: url(#linear-gradient-6);
      }

      .cls-5 {
        fill: url(#linear-gradient-9);
      }

      .cls-6 {
        fill: url(#linear-gradient-4);
      }

      .cls-7 {
        fill: url(#linear-gradient-3);
      }

      .cls-8 {
        fill: url(#linear-gradient-2);
      }

      .cls-9 {
        fill: url(#linear-gradient);
      }

      .cls-10 {
        fill: #fff;
      }

      .cls-11 {
        fill: #056a30;
      }

      .cls-12 {
        fill: url(#linear-gradient-10);
      }

      .cls-13 {
        fill: url(#linear-gradient-11);
      }

      .cls-14 {
        fill: url(#linear-gradient-12);
      }

      .cls-15 {
        fill: url(#linear-gradient-13);
      }

      .cls-16 {
        fill: url(#linear-gradient-14);
      }

      .cls-17 {
        fill: url(#linear-gradient-15);
      }

      .cls-18 {
        fill: url(#linear-gradient-16);
      }

      .cls-19 {
        fill: url(#linear-gradient-17);
      }

      .cls-20 {
        fill: url(#linear-gradient-18);
      }
    </style>
    <linearGradient id="linear-gradient" x1="-61.49" y1="828.8" x2="260" y2="828.8" gradientUnits="userSpaceOnUse">
      <stop offset="0" stop-color="#1a81c4"/>
      <stop offset="1" stop-color="#293177"/>
    </linearGradient>
    <linearGradient id="linear-gradient-2" x1="488.5" y1="554.22" x2="488.5" y2="714.05" xlink:href="#linear-gradient"/>
    <linearGradient id="linear-gradient-3" x1="883.11" y1="573.54" x2="883.11" y2="730.3" gradientUnits="userSpaceOnUse">
      <stop offset="0" stop-color="#83be18"/>
      <stop offset="1" stop-color="#035a2d"/>
    </linearGradient>
    <linearGradient id="linear-gradient-4" x1="302.01" y1="554.22" x2="302.01" y2="714.05" xlink:href="#linear-gradient"/>
    <linearGradient id="linear-gradient-5" x1="633.25" y1="554.22" x2="633.25" y2="714.05" xlink:href="#linear-gradient"/>
    <linearGradient id="linear-gradient-6" x1="769.96" y1="573.54" x2="769.96" y2="730.3" xlink:href="#linear-gradient-3"/>
    <linearGradient id="linear-gradient-7" x1="1006.56" y1="573.54" x2="1006.56" y2="730.3" xlink:href="#linear-gradient-3"/>
    <linearGradient id="linear-gradient-8" x1="1135.37" y1="573.54" x2="1135.37" y2="730.3" xlink:href="#linear-gradient-3"/>
    <linearGradient id="linear-gradient-9" x1="312.78" y1="480.96" x2="855.95" y2="480.96" gradientUnits="userSpaceOnUse">
      <stop offset="0" stop-color="#e7470b"/>
      <stop offset="1" stop-color="#fd910b"/>
    </linearGradient>
    <linearGradient id="linear-gradient-10" x1="438.88" y1="522.52" x2="713.37" y2="522.52" xlink:href="#linear-gradient-9"/>
    <linearGradient id="linear-gradient-11" x1="135.35" y1="724.15" x2="168.13" y2="613.21" gradientUnits="userSpaceOnUse">
      <stop offset="0" stop-color="#d82507"/>
      <stop offset="1" stop-color="#fd910b"/>
    </linearGradient>
    <linearGradient id="linear-gradient-12" x1="332.64" y1="920.8" x2="810.46" y2="920.8" xlink:href="#linear-gradient-9"/>
    <linearGradient id="linear-gradient-13" x1="936.61" y1="971.21" x2="935.97" y2="972.42" xlink:href="#linear-gradient"/>
    <linearGradient id="linear-gradient-14" x1="1290.36" y1="682.1" x2="1190.23" y2="872.35" gradientUnits="userSpaceOnUse">
      <stop offset="0" stop-color="#0392d6"/>
      <stop offset="1" stop-color="#293177"/>
    </linearGradient>
    <linearGradient id="linear-gradient-15" x1="438.23" y1="522.75" x2="1151.96" y2="522.75" xlink:href="#linear-gradient-9"/>
    <linearGradient id="linear-gradient-16" x1="1361.71" y1="670.48" x2="1259.59" y2="793.4" xlink:href="#linear-gradient"/>
    <linearGradient id="linear-gradient-17" x1="572.12" y1="986.23" x2="1172.23" y2="875.29" gradientUnits="userSpaceOnUse">
      <stop offset="0" stop-color="#0d7e30"/>
      <stop offset=".22" stop-color="#12802d"/>
      <stop offset=".5" stop-color="#218727"/>
      <stop offset=".8" stop-color="#3a931c"/>
      <stop offset="1" stop-color="#4f9d13"/>
    </linearGradient>
    <linearGradient id="linear-gradient-18" x1="956.18" y1="824.91" x2="325.81" y2="856.43" gradientUnits="userSpaceOnUse">
      <stop offset="0" stop-color="#8ac022"/>
      <stop offset="1" stop-color="#035a2d"/>
    </linearGradient>
  </defs>
  <path class="cls-11" d="M928.03,888.11s-228.62,41.18-273.16,45.39c0,0,180.29,2.42,337.25-38.3l-64.09-7.09Z"/>
  <path class="cls-9" d="M91.73,734.03s-35.93,146.04,185.96,189.53c0,0,181.55-40.97,419.41-34.25l295.01,5.88s152.55-34.04,231.56-115.57l-1064.54,5.31-1.84,13.82s29.42,27.26,94.35,48.7c0,0-133.53-22.27-159.9-113.41Z"/>
  <path class="cls-8" d="M567.45,701.98c-11.94,52.81-67.54,74.83-117.02,63.62-38.61-8.83-49.29-43.7-44.72-79.15,3.35-35.21,24.91-70.17,59.4-82.28,28.4-10.49,65.2-10.43,88.79,10.16,23.26,21.69,20.16,58.38,13.66,87.2l-.12.44ZM475.47,726.63c22.81,9.43,33.41-20.82,36.08-43.56,1.57-14.88,2.12-28.73-5.54-38.28-9.07-10.7-24.67-3.84-30.44,7.32-9.05,15.33-18.22,63.68-.38,74.35l.28.16Z"/>
  <path class="cls-7" d="M962.07,701.98c-11.94,52.81-67.54,74.83-117.02,63.62-38.61-8.83-49.29-43.7-44.72-79.15,3.35-35.21,24.91-70.17,59.4-82.28,28.4-10.49,65.2-10.43,88.79,10.16,23.26,21.69,20.16,58.38,13.66,87.2l-.12.44ZM870.08,726.63c22.81,9.43,33.41-20.82,36.08-43.56,1.57-14.88,2.12-28.73-5.54-38.28-9.07-10.7-24.67-3.84-30.44,7.32-9.05,15.33-18.22,63.68-.38,74.35l.28.16Z"/>
  <g>
    <path class="cls-10" d="M288.09,803.23h22.64c11.4,0,20.82,4.3,20.82,16.94,0,15.28-9.83,21.81-25.94,21.81h-9.5l-3.39,19.58h-14.87l10.24-58.32ZM305.35,830.24c6.53,0,10.08-2.07,10.08-9.17,0-5.04-3.55-6.61-7.6-6.61h-6.86l-2.73,15.78h7.1Z"/>
    <path class="cls-10" d="M351.94,803.23h13.22l11.73,58.32h-15.28l-1.82-11.9h-18.67l-6.03,11.9h-15.53l32.38-58.32ZM357.81,838.42c-.74-5.87-1.49-11.15-2.07-18.42-2.73,6.77-5.95,12.47-8.76,18.42h10.82Z"/>
    <path class="cls-10" d="M394.15,814.46h-15.78l1.98-11.24h46.43l-1.98,11.24h-15.78l-8.26,47.09h-14.87l8.26-47.09Z"/>
    <path class="cls-10" d="M432.4,803.23h14.87l-10.33,58.32h-14.87l10.33-58.32Z"/>
    <path class="cls-10" d="M456.85,803.23h39.74l-1.98,11.24h-24.87l-1.9,10.74h17.35l-1.98,11.23h-17.35l-2.4,13.88h26.02l-1.98,11.24h-40.89l10.24-58.32Z"/>
    <path class="cls-10" d="M504.59,803.23h15.94c5.29,16.03,9.75,28.42,11.81,38.41,1.49-13.05,3.88-26.11,5.95-38.41h13.88l-10.24,58.32h-15.94c-4.13-12.72-10.49-30.57-11.81-38.08-1.57,13.3-3.88,25.78-5.87,38.08h-13.96l10.24-58.32Z"/>
    <path class="cls-10" d="M571.09,814.46h-15.78l1.98-11.24h46.43l-1.98,11.24h-15.78l-8.26,47.09h-14.87l8.26-47.09Z"/>
    <path class="cls-10" d="M634.95,814.46h-15.78l1.98-11.24h46.43l-1.98,11.24h-15.78l-8.26,47.09h-14.87l8.26-47.09Z"/>
    <path class="cls-10" d="M672.69,803.23h21.48c12.64,0,22.22,3.88,22.22,15.61s-8.18,16.36-16.77,17.93c2.73.41,5.12,1.98,6.36,5.2l7.35,19.58h-16.69l-4.3-14.04c-1.57-5.04-4.38-5.62-8.43-5.62h-3.14l-3.47,19.66h-14.87l10.24-58.32ZM690.62,830.16c4.21,0,9.5-1.57,9.5-9.58,0-4.96-3.97-6.11-6.61-6.11h-7.93l-2.73,15.7h7.77Z"/>
    <path class="cls-10" d="M745.31,803.23h13.22l11.73,58.32h-15.28l-1.82-11.9h-18.67l-6.03,11.9h-15.53l32.38-58.32ZM751.17,838.42c-.74-5.87-1.49-11.15-2.07-18.42-2.73,6.77-5.95,12.47-8.76,18.42h10.82Z"/>
    <path class="cls-10" d="M785.29,803.23h15.94c5.29,16.03,9.75,28.42,11.81,38.41,1.49-13.05,3.88-26.11,5.95-38.41h13.88l-10.24,58.32h-15.94c-4.13-12.72-10.49-30.57-11.81-38.08-1.57,13.3-3.88,25.78-5.87,38.08h-13.96l10.24-58.32Z"/>
    <path class="cls-10" d="M841.7,843.79c1.32,2.81,6.11,6.77,13.14,6.77,5.12,0,8.43-1.82,8.43-4.87,0-3.8-4.46-4.63-12.47-8.1-8.76-3.8-13.3-7.93-13.3-15.94,0-10,7.68-19.66,24.87-19.66,9.58,0,17.76,3.39,21.73,9.5l-11.07,9.09c-2.23-3.55-6.44-6.28-12.8-6.28-4.96,0-7.02,2.48-7.02,4.79,0,2.56,2.48,4.46,8.34,6.77,12.97,5.04,17.6,8.92,17.6,16.61,0,13.71-11.15,20.4-25.53,20.4-12.39,0-20.16-4.46-23.05-9.17l11.15-9.91Z"/>
    <path class="cls-10" d="M892.75,803.23h22.64c11.4,0,20.82,4.3,20.82,16.94,0,15.28-9.83,21.81-25.94,21.81h-9.5l-3.39,19.58h-14.87l10.24-58.32ZM910.02,830.24c6.53,0,10.08-2.07,10.08-9.17,0-5.04-3.55-6.61-7.6-6.61h-6.86l-2.73,15.78h7.1Z"/>
    <path class="cls-10" d="M938.27,838.42c0-24.04,15.78-36.43,33.38-36.43,14.04,0,25.36,7.93,25.36,24.7,0,24.7-15.86,36.18-33.87,36.18-13.22,0-24.87-7.85-24.87-24.45ZM980.9,828.26c0-8.51-4.3-13.38-10.74-13.38-9.91,0-15.86,8.92-15.86,21.81,0,9.17,5.04,13.3,10.41,13.3,9,0,16.19-7.19,16.19-21.73Z"/>
    <path class="cls-10" d="M1007.99,803.23h21.48c12.64,0,22.22,3.88,22.22,15.61s-8.18,16.36-16.77,17.93c2.73.41,5.12,1.98,6.36,5.2l7.35,19.58h-16.69l-4.3-14.04c-1.57-5.04-4.38-5.62-8.43-5.62h-3.14l-3.47,19.66h-14.87l10.24-58.32ZM1025.91,830.16c4.21,0,9.5-1.57,9.5-9.58,0-4.96-3.97-6.11-6.61-6.11h-7.93l-2.73,15.7h7.77Z"/>
    <path class="cls-10" d="M1070.19,814.46h-15.78l1.98-11.24h46.43l-1.98,11.24h-15.78l-8.26,47.09h-14.87l8.26-47.09Z"/>
  </g>
  <polygon class="cls-6" points="248.01 766.5 186.66 766.5 215.23 538.72 288.78 538.72 336.68 676.99 355.6 537.88 417.37 537.88 383.33 764.82 312.73 764.82 262.3 632.86 248.01 766.5"/>
  <path class="cls-3" d="M629.28,763.45h-60.04l22.33-162.06h57.57l-6.93,30.68s18.49-34.67,55.05-35.09l-7.98,64.09s-46.86-5.25-53.58,39.5l-6.41,62.88Z"/>
  <path class="cls-4" d="M765.65,761.61h-58.83l17.23-120.61h-19.33l5.04-39.92h21.01s-10.3-85.1,104.43-66.19l-9.25,36.14s-37.4-8.4-38.24,29.84h31.94l-10.09,39.5-28.58.84-15.34,120.4Z"/>
  <polygon class="cls-2" points="994.27 532.58 1054.15 532.58 1018.22 760.77 958.97 760.77 994.27 532.58"/>
  <polygon class="cls-1" points="1168.45 675.26 1223.51 760.14 1151.24 760.14 1109.87 691.2 1098.91 760.76 1039.66 760.76 1074.95 532.57 1134.85 532.57 1113.8 666.15 1169.3 597.92 1231.08 597.92 1168.45 675.26"/>
  <path class="cls-5" d="M312.78,522.65s52.32-12.61,117.88-10.09c0,0,242.9-73.54,425.29-71.02,0,0-313.09-23.53-543.17,81.11Z"/>
  <path class="cls-12" d="M713.37,466.67c-141.41,30.68-246.99,94.06-274.5,111.72,3.48-30.34,20.36-57,20.36-57,92.43-28.09,177.56-45.19,254.13-54.72Z"/>
  <path class="cls-13" d="M186.29,597.03l-29,201.72s-148.77-90.77,29-201.72Z"/>
  <path class="cls-14" d="M332.64,927.82s219.79-45.39,477.82-28.58l-298.37,45.65c-6.36.97-12.79,1.36-19.23,1.14-26.77-.92-102.15-4.62-160.23-18.21Z"/>
  <path class="cls-15" d="M936.12,972.32c.71-.04,1.54-.11,2.48-.2-.94.11-1.83.2-2.68.27-.87.07-1.7.13-2.48.16.42-.02,1.34-.11,2.68-.22Z"/>
  <path class="cls-16" d="M1437.47,770.76c-1.34,12.84-7.97,27.68-21.43,44.85-93.46,119.15-428.32,152.24-476.95,156.46,29.45-3.42,93.72-22.55,163.47-49.88,88.77-34.76,186.35-82.83,232.17-128.64,84.48-84.48-100.87-104.64-100.87-104.64,0,0,212.52-1.43,203.61,81.85Z"/>
  <path class="cls-17" d="M1151.96,494.89c-363.08-59.21-713.73,94.17-713.73,94.17,0-2.84.13-5.65.4-8.44h.02c.04-.74.11-1.5.2-2.23h.02c27.51-17.66,133.08-81.04,274.5-111.72.04,0,.07-.02.11-.02,24.76-3.08,48.65-5.36,71.58-6.99l.04-.02c227.54-16.07,363.24,33.89,366.86,35.25Z"/>
  <path class="cls-18" d="M1437.47,770.76c-1.34,12.84-7.97,27.68-21.43,44.85-93.46,119.15-428.32,152.24-476.95,156.46h-.04c-.16.02-.29.04-.45.04-.94.11-1.83.2-2.68.27l.2-.07,123.24-40.1c14.96-3.28,32.55-12.51,46.39-15.9,225.89-55.12,304.77-115.71,331.72-145.56Z"/>
  <path class="cls-19" d="M1227.54,865.27c-3.17,1.88-6.41,3.73-9.69,5.58-.02.02-.07.04-.09.04-25.67,14.44-55.1,28.18-88.79,40.66-14.18,5.27-29.11,10.29-44.83,15.05-14.98,4.55-30.65,8.86-47.09,12.88-133.26,32.64-315.37,47.09-562.27,23.84,0,0,18.35-2.52,44.03-6.25,91.87-.98,412.11-10.4,708.73-91.8Z"/>
  <path class="cls-20" d="M1298.69,813.3c-11.43,10.4-24.31,20.83-38.85,31.1-9.98,7.06-20.72,14.02-32.28,20.87h-.02c-296.62,81.4-616.86,90.82-708.73,91.8,40.52-5.89,99.26-14.8,132.7-21.48,0,0,297.96,12.19,502.2-84.88,3.91-1.85,7.7-3.68,11.39-5.51,189.17-93.37,95.29-138.8,69.92-146.61,0,0,170.21,17.64,63.67,114.71Z"/>
</svg>